<?xml version="1.0" encoding="utf-8"?>
<!-- Generator: Adobe Illustrator 16.0.3, SVG Export Plug-In . SVG Version: 6.00 Build 0)  -->
<!DOCTYPE svg PUBLIC "-//W3C//DTD SVG 1.1//EN" "http://www.w3.org/Graphics/SVG/1.1/DTD/svg11.dtd">
<svg version="1.1" id="Layer_1" xmlns="http://www.w3.org/2000/svg" xmlns:xlink="http://www.w3.org/1999/xlink" x="0px" y="0px"
	 width="587px" height="587.53px" viewBox="0 0 587 587.53" enable-background="new 0 0 587 587.53" xml:space="preserve">
<path fill-rule="evenodd" clip-rule="evenodd" fill="#E9C98A" d="M264.167,22.361c34.418-0.413,62.006,1.323,86,11
	c102.135,41.191,189.175,198.753,145,355c-27.889,98.644-81.934,177.524-189,197c-49.453,8.996-92.235-11.835-118-29
	c-77.802-51.832-151.248-181.391-116-324c21.925-88.705,63.845-156.741,137-194C225.667,29.958,245.632,30.159,264.167,22.361z"/>
<path fill-rule="evenodd" clip-rule="evenodd" stroke="#000000" stroke-miterlimit="10" d="M253.167,0.361
	c6.448-0.522,12.653-1.072,15,3c-12.281,3.837-15.102,11.693-19,24c72.335-44.409,206.976,52.005,213,97
	c-0.165,0.307,16.338,29.62,13,40c-93.464,9.932-163.637-7.218-207-62c-7.999-11.666-16.001-23.334-24-35c-0.333,0-0.667,0-1,0
	c-24.717,78.351-56.321,88.197-151,96c0-2.667,0-5.333,0-8c25.982-53.096,45.456-96.423,105-124c10.666-2.333,21.334-4.667,32-7
	c-0.667,0-1.333,0-2,0c-5.34-4.638-15.563-2.281-19-8c13.417-1.799,22.535-1.892,32,4C241.818,9.842,246.492,5.707,253.167,0.361z"
	/>
<path fill-rule="evenodd" clip-rule="evenodd" d="M239.167,310.361c20.396,1.5,32.043,8.658,48,17
	c84.514-48.437,98.427,23.801,164,35c-1-0.333,3.125,0.625,0,0c10.958-3.845,18.443-1.133,24-10c5.651-10.284-1.614-21.591-6-28
	c-4.75-4.75-10.914-2.872-17.247-4.539c0.247-1.461,0,0,0.247-1.461c25.004-25.682,58.184,33.946,38,65
	c-34.18,52.587-166.204,27.753-201-11c-11.999,7.333-19.75,14.25-36,22c-40.687,17.693-108.096,31.693-151,5
	c-33.127-20.611-30.868-89.18,20-80c0,0.667,0,1.333,0,2c-21.638-0.566-33.068,32.452-14,41c10.958,5.26,27.691-2.276,36-7
	c20.665-11.999,41.335-24.001,62-36C217.667,313.861,226.417,312.611,239.167,310.361z"/>
<path fill-rule="evenodd" clip-rule="evenodd" d="M102.667,364.611c6.212,2.656,30.003,9.165,35.5,13.75
	c-22.867,67.544,89.33,112.809,155,102c66.943-11.018,101.775-26.735,118-90c18.196,0.07,26.439-5.832,38-9
	c9.333,0.667,18.667,1.333,28,2c0,0.667,0,1.333,0,2c23.092,48.334-18.438,117.321-39,138c-24.307,24.447-52.419,43.694-90,55
	c-119.524,35.959-231.958-36.849-254-126C85.935,419.063,94.859,389.469,102.667,364.611z"/>
<path fill-rule="evenodd" clip-rule="evenodd" fill="none" d="M77.167,197.361c2,0.333,4,0.667,6,1c1.667,1,3.333,2,5,3c0,1,0,2,0,3
	c-1,0.667-2,1.333-3,2c-4.596,1.947-8.021-0.21-10-4c-0.333-1-0.667-2-1-3C75.167,198.695,76.167,198.028,77.167,197.361z"/>
<path fill-rule="evenodd" clip-rule="evenodd" fill="none" d="M485.167,197.361c3,0.667,6,1.333,9,2c-1.047,6.076-2.291,5.907-7,8
	c-2-0.333-4-0.667-6-1c-0.333-1.667-0.667-3.333-1-5C481.833,200.028,483.5,198.694,485.167,197.361z"/>
<path fill-rule="evenodd" clip-rule="evenodd" fill="#19191A" d="M501.167,189.361c0.08,9.099,0.593,19.563-3,27
	c-15.5,5.721-16.882,28.079-23,43c-8.604,20.987-19.958,34.406-41,43c-36.914,15.076-95.105,10.756-117-17
	c-8.265-10.478-17.013-48.177-32-50c-4,2-8,4-12,6c-2,6-4,12-6,18c-6.345,17.303-21.309,35.772-38,43
	c-34.034,14.737-101.164,10.767-123-19c-15.722-21.432-17.623-53.148-38-70c-0.333-7.999-0.667-16.001-1-24
	c51.012-2.519,110.102,0.667,153,5c20.806,2.102,55.102,21.417,70,18c8.499-1.949,17.023-9.059,27-12
	C364.291,186.469,438.658,185.382,501.167,189.361z"/>
<path fill-rule="evenodd" clip-rule="evenodd" fill="#E9C98A" stroke="#000000" stroke-miterlimit="10" d="M159.167,194.361
	c-21.441,7.626-51.732-5.242-61,14c-7.433,13.115-0.109,41.736,4,51c6.206,13.989,12.633,25.552,25,33
	c24.682,14.865,79.628,16.899,103,1c17.511-11.913,45.912-61.698,17-83C228.668,196.731,190.321,193.829,159.167,194.361z"/>
<path fill-rule="evenodd" clip-rule="evenodd" fill="#E9C98A" stroke="#000000" stroke-miterlimit="10" d="M397.167,194.361
	c-25.577,9.124-53.065,1.631-73,14c-30.952,19.204-5.897,70.146,13,84c51.95,38.086,161.827-6.021,132-88
	C452.021,195.408,423.387,194.434,397.167,194.361z"/>
<path fill-rule="evenodd" clip-rule="evenodd" fill="#999999" d="M78.334,197.945c-3.083,2.458-3.167,4.417-1.167,7.417
	c3.333,1.73,6.5,1.417,10,1c0.333-1,1-1.083,1-3c0-1.337,0-2-1-3C82.75,197.945,82.05,197.945,78.334,197.945z"/>
<path fill-rule="evenodd" clip-rule="evenodd" fill="#999999" d="M488.167,197.361c-2,0.667-4,1.333-6,2
	c-0.667,1.333-1.333,2.667-2,4c0.667,1,1.333,2,2,3c1,0.333,2,0.667,3,1c4.578-1.69,6.334-2.558,9-6c-0.333-1-0.667-2-1-3
	C491.5,198.028,489.833,197.695,488.167,197.361z"/>
<path fill-rule="evenodd" clip-rule="evenodd" fill="#494849" d="M136.167,193.361c40.581-1.003,116.36-1.386,122,29
	c-10.631-3.299-17.579-13.431-30-17c-32.272-9.273-89.138-5.565-128,4c-1.485,6.177,1.107,24.333-4.083,27.57
	c-1.11-9.903-1.25-18.904-0.917-29.57c-0.193-5,2-5.5,5-7C109.372,197.786,120.167,194.361,136.167,193.361z"/>
<path fill-rule="evenodd" clip-rule="evenodd" fill="#6B471B" d="M183.167,224.361c36.215-2.013,36.569,45.836,1,44
	c-14-3.333-17.542-10.128-17-27C167.115,233.361,174.667,226.695,183.167,224.361z"/>
<path fill-rule="evenodd" clip-rule="evenodd" fill="#6B471B" d="M387.167,224.361c36.215-2.013,36.569,45.836,1,44
	c-8.667,0.052-17.021-11.333-17-27C371.135,233.695,380.5,224.299,387.167,224.361z"/>
<path fill-rule="evenodd" clip-rule="evenodd" fill="#494849" d="M469.283,201.672c3,1.5,5.193,2,5,7
	c0.333,10.666,0.193,19.667-0.917,29.57c-5.19-3.237-2.598-21.393-4.083-27.57c-38.862-9.565-95.728-13.273-128-4
	c-12.421,3.569-19.369,13.701-30,17c5.64-30.386,81.419-30.003,122-29C449.283,195.672,460.078,199.097,469.283,201.672z"/>
<path fill-rule="evenodd" clip-rule="evenodd" fill="#999999" d="M481.991,200.361c-1,1-1,1.663-1,3c0,1.917,0.667,2,1,3
	c3.5,0.417,6.667,0.73,10-1c2-3,1.917-4.958-1.167-7.417C487.107,197.945,486.407,197.945,481.991,200.361z"/>
</svg>
